<svg width="500" height="500" viewBox="0 0 500 500" fill="none" xmlns="http://www.w3.org/2000/svg">
<rect width="500" height="500" rx="50" fill="#000FFF"/>
<path d="M112.728 195.909V305H92.8061L45.3452 236.339H44.5462V305H21.4815V195.909H41.723L88.8111 264.517H89.7699V195.909H112.728ZM168.325 306.598C160.051 306.598 152.896 304.84 146.859 301.325C140.857 297.773 136.223 292.837 132.956 286.516C129.689 280.16 128.056 272.791 128.056 264.411C128.056 255.959 129.689 248.572 132.956 242.251C136.223 235.895 140.857 230.959 146.859 227.443C152.896 223.892 160.051 222.116 168.325 222.116C176.6 222.116 183.737 223.892 189.739 227.443C195.776 230.959 200.428 235.895 203.695 242.251C206.962 248.572 208.595 255.959 208.595 264.411C208.595 272.791 206.962 280.16 203.695 286.516C200.428 292.837 195.776 297.773 189.739 301.325C183.737 304.84 176.6 306.598 168.325 306.598ZM168.432 289.02C172.196 289.02 175.339 287.955 177.86 285.824C180.382 283.658 182.281 280.71 183.56 276.982C184.874 273.253 185.531 269.009 185.531 264.251C185.531 259.492 184.874 255.249 183.56 251.52C182.281 247.791 180.382 244.844 177.86 242.678C175.339 240.511 172.196 239.428 168.432 239.428C164.632 239.428 161.436 240.511 158.844 242.678C156.287 244.844 154.352 247.791 153.038 251.52C151.759 255.249 151.12 259.492 151.12 264.251C151.12 269.009 151.759 273.253 153.038 276.982C154.352 280.71 156.287 283.658 158.844 285.824C161.436 287.955 164.632 289.02 168.432 289.02ZM266.869 223.182V240.227H217.597V223.182H266.869ZM228.784 203.58H251.475V279.858C251.475 281.953 251.795 283.587 252.434 284.759C253.073 285.895 253.961 286.694 255.097 287.156C256.269 287.617 257.619 287.848 259.146 287.848C260.211 287.848 261.276 287.759 262.342 287.582C263.407 287.369 264.224 287.209 264.792 287.102L268.361 303.988C267.225 304.343 265.627 304.751 263.567 305.213C261.507 305.71 259.004 306.012 256.056 306.119C250.588 306.332 245.794 305.604 241.674 303.935C237.59 302.266 234.412 299.673 232.139 296.158C229.867 292.642 228.748 288.203 228.784 282.841V203.58ZM382.326 250.455C382.326 262.351 380.071 272.472 375.561 280.817C371.086 289.162 364.979 295.536 357.237 299.94C349.531 304.308 340.866 306.491 331.243 306.491C321.548 306.491 312.848 304.29 305.142 299.886C297.436 295.483 291.346 289.109 286.871 280.763C282.397 272.418 280.16 262.315 280.16 250.455C280.16 238.558 282.397 228.438 286.871 220.092C291.346 211.747 297.436 205.391 305.142 201.023C312.848 196.619 321.548 194.418 331.243 194.418C340.866 194.418 349.531 196.619 357.237 201.023C364.979 205.391 371.086 211.747 375.561 220.092C380.071 228.438 382.326 238.558 382.326 250.455ZM358.942 250.455C358.942 242.749 357.787 236.25 355.479 230.959C353.206 225.668 349.993 221.655 345.838 218.92C341.683 216.186 336.818 214.819 331.243 214.819C325.667 214.819 320.802 216.186 316.648 218.92C312.493 221.655 309.261 225.668 306.953 230.959C304.68 236.25 303.544 242.749 303.544 250.455C303.544 258.161 304.68 264.659 306.953 269.95C309.261 275.241 312.493 279.254 316.648 281.989C320.802 284.723 325.667 286.09 331.243 286.09C336.818 286.09 341.683 284.723 345.838 281.989C349.993 279.254 353.206 275.241 355.479 269.95C357.787 264.659 358.942 258.161 358.942 250.455ZM458.591 227.283C458.165 222.987 456.336 219.648 453.104 217.269C449.873 214.89 445.487 213.7 439.947 213.7C436.183 213.7 433.005 214.233 430.413 215.298C427.82 216.328 425.832 217.766 424.447 219.613C423.097 221.46 422.423 223.555 422.423 225.898C422.352 227.852 422.76 229.556 423.648 231.012C424.571 232.468 425.832 233.729 427.43 234.794C429.028 235.824 430.874 236.729 432.969 237.511C435.065 238.256 437.302 238.896 439.681 239.428L449.482 241.772C454.241 242.837 458.609 244.258 462.586 246.033C466.563 247.809 470.008 249.993 472.92 252.585C475.832 255.178 478.087 258.232 479.685 261.747C481.318 265.263 482.153 269.293 482.188 273.839C482.153 280.515 480.448 286.303 477.075 291.204C473.737 296.069 468.907 299.851 462.586 302.55C456.3 305.213 448.719 306.545 439.841 306.545C431.034 306.545 423.364 305.195 416.83 302.496C410.331 299.798 405.253 295.803 401.595 290.511C397.973 285.185 396.073 278.597 395.896 270.749H418.214C418.463 274.407 419.511 277.461 421.357 279.911C423.239 282.326 425.743 284.155 428.868 285.398C432.028 286.605 435.597 287.209 439.575 287.209C443.481 287.209 446.872 286.641 449.749 285.504C452.661 284.368 454.915 282.788 456.513 280.763C458.112 278.739 458.911 276.413 458.911 273.786C458.911 271.335 458.183 269.276 456.727 267.607C455.306 265.937 453.211 264.517 450.441 263.345C447.707 262.173 444.351 261.108 440.374 260.149L428.495 257.166C419.298 254.929 412.036 251.431 406.709 246.673C401.382 241.914 398.737 235.504 398.772 227.443C398.737 220.838 400.494 215.067 404.045 210.131C407.632 205.195 412.55 201.342 418.8 198.572C425.05 195.803 432.153 194.418 440.107 194.418C448.204 194.418 455.271 195.803 461.308 198.572C467.38 201.342 472.103 205.195 475.477 210.131C478.85 215.067 480.59 220.785 480.697 227.283H458.591Z" fill="white"/>
</svg>
